<svg preserveAspectRatio="none" width="100%" height="100%" overflow="visible" style="display: block;" viewBox="0 0 80 80" fill="none" xmlns="http://www.w3.org/2000/svg">
<g id="SVG">
<path id="Vector" d="M53.3332 70.002V63.3353C53.3332 59.7991 51.9284 56.4077 49.428 53.9073C46.9275 51.4068 43.5361 50.002 39.9999 50.002H19.9999C16.4637 50.002 13.0723 51.4068 10.5718 53.9073C8.0713 56.4077 6.66655 59.7991 6.66655 63.3353V70.002" stroke="var(--stroke-0, #92B4FF)" stroke-width="5" stroke-linecap="round" stroke-linejoin="round"/>
<path id="Vector_2" d="M53.3337 10.4261C56.1929 11.1674 58.725 12.837 60.5326 15.173C62.3402 17.509 63.321 20.3791 63.321 23.3328C63.321 26.2865 62.3402 29.1566 60.5326 31.4926C58.725 33.8286 56.1929 35.4982 53.3337 36.2394" stroke="var(--stroke-0, #92B4FF)" stroke-width="5" stroke-linecap="round" stroke-linejoin="round"/>
<path id="Vector_3" d="M73.3337 70.0039V63.3373C73.3315 60.383 72.3482 57.5132 70.5382 55.1783C68.7283 52.8435 66.1941 51.1758 63.3337 50.4373" stroke="var(--stroke-0, #92B4FF)" stroke-width="5" stroke-linecap="round" stroke-linejoin="round"/>
<path id="Vector_4" d="M29.9999 36.6687C37.3637 36.6687 43.3332 30.6991 43.3332 23.3353C43.3332 15.9715 37.3637 10.002 29.9999 10.002C22.6361 10.002 16.6665 15.9715 16.6665 23.3353C16.6665 30.6991 22.6361 36.6687 29.9999 36.6687Z" stroke="var(--stroke-0, #92B4FF)" stroke-width="5" stroke-linecap="round" stroke-linejoin="round"/>
</g>
</svg>
